<svg width="100" height="100" viewBox="0 0 100 100" fill="none" xmlns="http://www.w3.org/2000/svg">
<path d="M57.6963 19.0961C57.5085 19.1618 57.2173 19.3214 57.0577 19.4435C56.9074 19.5656 54.0432 23.6789 50.6999 28.5905L44.6239 37.512L42.9053 37.5402L41.1868 37.5589L41.2337 37.2584C41.2619 37.0894 41.4403 35.4084 41.6187 33.5208C41.7972 31.6332 41.9662 29.9146 41.9944 29.6986C42.0507 29.3136 42.0789 29.2854 42.7175 28.9473C43.3561 28.6092 44.2576 27.8392 44.6333 27.2945L44.8211 27.0221L47.5351 27.3039C49.3758 27.4823 50.3431 27.548 50.5121 27.4917C51.038 27.3133 51.0756 26.5056 50.5685 26.2896C50.4464 26.2333 49.1128 26.0736 47.5915 25.9234C44.53 25.6323 44.2952 25.6416 43.8444 26.1394C43.6942 26.299 43.3561 26.6653 43.0838 26.9564C42.802 27.2663 42.3982 27.5856 42.0695 27.7453C41.2337 28.1491 40.9426 28.4026 40.7923 28.844C40.6984 29.0882 40.4824 30.9288 40.2383 33.3987L39.8344 37.5589H39.3931H38.9423L38.9892 37.2021C39.0174 37.0143 39.3179 34.0748 39.6466 30.6753C39.9847 27.2663 40.304 24.4114 40.351 24.3081C40.4918 24.0452 40.7548 23.9419 41.2619 23.9419C41.5061 23.9419 44.0135 24.1766 46.8214 24.4584C51.3479 24.9091 51.9677 24.9467 52.1931 24.834C52.6439 24.5992 52.6251 23.8573 52.1649 23.6601C52.0429 23.6132 50.39 23.4254 48.4742 23.2375C46.5679 23.0497 44.1262 22.8149 43.0462 22.7022C41.9568 22.5989 40.9144 22.5426 40.689 22.5708C39.8344 22.7022 39.1019 23.4347 38.9329 24.3457C38.8766 24.618 38.6136 27.0973 38.3413 29.8582L37.8529 34.8825L36.6696 34.9388C35.6554 34.9764 35.4206 35.0233 35.0356 35.2206C34.2374 35.6338 33.7866 36.4132 33.7772 37.4181C33.7678 37.8688 33.749 37.897 33.3264 38.1694C33.0916 38.3196 32.7536 38.6295 32.5845 38.8549C31.9553 39.6813 31.9835 38.9582 32.0117 52.5002L32.0398 64.7461L32.2652 65.2345C32.5376 65.8543 33.3076 66.5774 33.9181 66.8216C34.3782 67 34.8666 67 54.2028 67H74.018L74.5063 66.7746C75.0886 66.5117 75.7835 65.8073 76.0653 65.1875C76.2625 64.7649 76.2719 64.6147 76.3 61.1494L76.3282 57.562H76.6757C77.4833 57.562 78.197 57.1581 78.4412 56.5571C78.5445 56.3129 78.5727 55.4302 78.5727 52.3029C78.5727 48.5559 78.5633 48.3305 78.3849 47.983C78.1031 47.429 77.7087 47.1942 76.9574 47.1566L76.3188 47.1191V43.7195C76.3188 40.8646 76.2906 40.2354 76.1686 39.8128C75.9995 39.2493 75.6051 38.6107 75.2388 38.329C75.0229 38.16 75.0041 38.0754 75.0041 37.4462C75.0041 36.6104 74.7223 35.9437 74.1777 35.4929C73.7832 35.1736 73.0883 34.9294 72.5436 34.9294H72.1774L73.2761 33.3236C73.8865 32.4314 74.4312 31.5205 74.5063 31.2763C74.7317 30.525 74.4876 29.6329 73.9053 29.0976C73.7644 28.9661 72.5248 28.0927 71.1537 27.163C69.7826 26.2333 66.6366 24.0827 64.1574 22.3923C61.6781 20.7019 59.5276 19.2557 59.3773 19.1806C58.9923 18.9834 58.1283 18.9364 57.6963 19.0961ZM58.8608 20.4766C59.4336 20.7771 72.7408 29.9146 72.9662 30.1494C73.3794 30.5908 73.3137 30.8161 72.4027 32.1685C71.9426 32.8352 70.9471 34.319 70.1677 35.4647L68.759 37.5495L68.2143 37.5589H67.679L68.7778 35.9531C69.3788 35.0609 69.9235 34.1781 69.9986 33.9715C70.1395 33.5489 70.0831 33.2296 69.6887 32.2999C69.4727 31.7834 69.4258 31.5393 69.407 30.6753C69.3882 29.8395 69.3412 29.6047 69.1816 29.3511C69.0501 29.1257 67.8856 28.2805 65.181 26.4399C63.0868 25.0124 61.2743 23.801 61.1428 23.754C60.7296 23.5944 60.2976 23.6507 59.5369 23.9606C58.8984 24.2236 58.6824 24.2612 57.7996 24.2799C56.6163 24.3081 56.2782 24.4302 55.8744 25.0031C55.7148 25.219 53.7614 28.0833 51.5263 31.3608C49.2913 34.6383 47.4131 37.3805 47.3567 37.4462C47.2816 37.5214 47.0656 37.5589 46.7557 37.5402L46.2861 37.512L52.0053 29.107C55.1513 24.4865 57.8184 20.6268 57.9217 20.5329C58.1471 20.3545 58.5791 20.3263 58.8608 20.4766ZM64.4391 27.5856L68.0077 30.0179L68.0641 31.0415C68.111 31.8398 68.1768 32.206 68.374 32.7225C68.5148 33.0794 68.6369 33.4456 68.6463 33.5208C68.6557 33.6053 68.0734 34.5444 67.3503 35.615L66.0356 37.5495L64.8617 37.5589H63.6784L63.5751 36.9297C63.4249 36.0658 62.8144 34.8825 62.1758 34.1875C61.4997 33.455 60.7766 32.9855 59.8093 32.6474C57.8466 31.9712 55.4988 32.5253 54.0526 34.0091C53.2449 34.8355 52.6345 36.0094 52.4842 37.0236L52.4185 37.512L50.6999 37.5402C49.3194 37.5589 48.9908 37.5402 49.0471 37.4462C49.0941 37.3805 50.9159 34.6947 53.1041 31.4735L57.0859 25.6323H57.9686C58.6448 25.6323 59.011 25.5759 59.5745 25.3975C59.9783 25.266 60.3728 25.1251 60.4385 25.0782C60.523 25.0218 60.6451 25.0218 60.7202 25.0688C60.8047 25.1157 62.4764 26.2427 64.4391 27.5856ZM59.0862 33.8495C59.8469 34.0561 60.4761 34.4129 61.0489 34.9858C61.6406 35.5774 61.9974 36.2066 62.1758 36.9767L62.3073 37.5589H58.0438H53.7708L53.8366 37.2021C54.2685 34.8261 56.7384 33.239 59.0862 33.8495ZM37.6839 36.6292C37.6557 36.7889 37.6275 37.0706 37.6275 37.2396V37.5589H36.4067H35.1859V37.2209C35.1859 36.9767 35.261 36.817 35.4582 36.6104C35.7305 36.3475 35.7587 36.3381 36.7354 36.3381H37.7496L37.6839 36.6292ZM73.2479 36.5353C73.5203 36.7419 73.7738 37.4275 73.633 37.5402C73.586 37.5777 72.8441 37.5965 71.9801 37.5777L70.4118 37.5495L70.8063 36.9485L71.2007 36.3381H72.1022C72.8723 36.3381 73.0413 36.3663 73.2479 36.5353ZM74.2246 39.3057C74.8162 39.7752 74.9102 40.0664 74.9102 41.3811V42.5362H54.1559H33.4015V41.3623C33.4015 40.5265 33.4391 40.1039 33.533 39.9255C33.7021 39.5968 34.1341 39.193 34.4346 39.0709C34.5848 39.0146 41.3934 38.9864 54.2685 38.9958L73.8584 39.0146L74.2246 39.3057ZM74.9102 45.5414V47.1378H71.3697C68.5336 47.1378 67.6978 47.166 67.2189 47.2787C65.5754 47.6731 64.1668 48.9315 63.5469 50.5656C63.284 51.2699 63.1901 52.7068 63.3591 53.4393C63.7817 55.2611 65.1716 56.7449 67.0216 57.3366C67.463 57.4774 68.0453 57.5056 71.2289 57.5432L74.9102 57.5807V59.1678V60.7549H58.025C41.2149 60.7549 41.1304 60.7549 40.9614 60.9427C40.7454 61.1869 40.7454 61.6377 40.9614 61.8819C41.1304 62.0697 41.2149 62.0697 58.025 62.0697H74.9102V63.2623C74.9102 64.3329 74.882 64.502 74.6942 64.84C74.5721 65.0467 74.3185 65.3002 74.1119 65.4223L73.7363 65.6383H54.1746C32.3779 65.6383 34.2374 65.6946 33.7021 64.9997C33.4579 64.6804 33.4485 64.6147 33.4203 63.3656L33.3828 62.0697H35.3643C37.2237 62.0697 37.3552 62.0603 37.5336 61.8819C37.6369 61.7786 37.7214 61.572 37.7214 61.4123C37.7214 61.2527 37.6369 61.0461 37.5336 60.9427C37.3552 60.7643 37.2237 60.7549 35.3737 60.7549H33.4015V52.3499V43.9449H54.1559H74.9102V45.5414ZM77.1452 52.3217L77.164 56.1533H72.5906C69.9047 56.1533 67.8387 56.1063 67.6039 56.0594C66.1295 55.7119 64.9462 54.4629 64.6645 52.9509C64.2888 50.8943 65.8102 48.8282 67.895 48.5559C68.2143 48.5089 70.4212 48.4808 72.7972 48.4902L77.1171 48.4996L77.1452 52.3217Z" fill="#4086F4"/>
<path d="M67.7731 49.6641C66.5898 50.0303 65.7071 51.3357 65.8292 52.5377C65.9794 54.0309 67.1063 55.0639 68.562 55.0639C70.9849 55.0733 72.2151 52.3217 70.6374 50.4435C70.5059 50.2839 70.1397 50.0209 69.8204 49.8707C69.3414 49.6265 69.1348 49.5795 68.6277 49.5889C68.2896 49.5889 67.9046 49.6265 67.7731 49.6641ZM69.1254 51.0258C70.1115 51.439 70.2618 52.8195 69.3884 53.4675C69.0315 53.7398 68.2708 53.768 67.8858 53.5332C66.9373 52.9322 66.9937 51.5235 67.9985 51.0727C68.4587 50.8661 68.7122 50.8567 69.1254 51.0258Z" fill="#4086F4"/>
</svg>
